<?xml version="1.0" encoding="UTF-8" standalone="no"?>
<!-- Created with Inkscape (http://www.inkscape.org/) -->

<svg
   xmlns:dc="http://purl.org/dc/elements/1.1/"
   xmlns:cc="http://creativecommons.org/ns#"
   xmlns:rdf="http://www.w3.org/1999/02/22-rdf-syntax-ns#"
   xmlns:svg="http://www.w3.org/2000/svg"
   xmlns="http://www.w3.org/2000/svg"
   xmlns:sodipodi="http://sodipodi.sourceforge.net/DTD/sodipodi-0.dtd"
   xmlns:inkscape="http://www.inkscape.org/namespaces/inkscape"
   id="svg4273"
   version="1.1"
   inkscape:version="0.48.4 r9939"
   width="280"
   height="280"
   viewBox="0 0 280 280"
   sodipodi:docname="rl_logo.svg"
   inkscape:export-filename="E:\Owncloud\DevStuff\rl_logo.png"
   inkscape:export-xdpi="82.290001"
   inkscape:export-ydpi="82.290001">
  <metadata
     id="metadata4279">
    <rdf:RDF>
      <cc:Work
         rdf:about="">
        <dc:format>image/svg+xml</dc:format>
        <dc:type
           rdf:resource="http://purl.org/dc/dcmitype/StillImage" />
        <dc:title />
      </cc:Work>
    </rdf:RDF>
  </metadata>
  <defs
     id="defs4277" />
  <sodipodi:namedview
     pagecolor="#ffffff"
     bordercolor="#666666"
     borderopacity="1"
     objecttolerance="10"
     gridtolerance="10"
     guidetolerance="10"
     inkscape:pageopacity="0"
     inkscape:pageshadow="2"
     inkscape:window-width="1227"
     inkscape:window-height="931"
     id="namedview4275"
     showgrid="true"
     inkscape:zoom="1.4839286"
     inkscape:cx="64.798512"
     inkscape:cy="157.65242"
     inkscape:window-x="0"
     inkscape:window-y="0"
     inkscape:window-maximized="0"
     inkscape:current-layer="svg4273">
    <inkscape:grid
       type="xygrid"
       id="grid3781"
       empspacing="5"
       visible="true"
       enabled="true"
       snapvisiblegridlinesonly="true" />
  </sodipodi:namedview>
  <g
     style="stroke:#000000;stroke-opacity:0.62433863"
     transform="matrix(0.97195154,0,0,0.97833478,-8.4896017,-1.1868285)"
     id="g3763">
    <path
       style="fill:none;stroke:#000000;stroke-width:10;stroke-linecap:butt;stroke-linejoin:miter;stroke-miterlimit:4;stroke-opacity:0.62433863;stroke-dasharray:none"
       d="M 283.88433,46.904862 C 289.60245,180.32765 194.30045,255.61623 152.36757,268.95851"
       id="path3765"
       inkscape:connector-curvature="0"
       sodipodi:nodetypes="cc" />
    <path
       sodipodi:nodetypes="cc"
       inkscape:connector-curvature="0"
       id="path3767"
       d="M 24.580493,46.904862 C 18.862373,180.32765 114.16437,255.61623 156.09725,268.95851"
       style="fill:none;stroke:#000000;stroke-width:10;stroke-linecap:butt;stroke-linejoin:miter;stroke-miterlimit:4;stroke-opacity:0.62433863;stroke-dasharray:none" />
    <path
       style="fill:none;stroke:#000000;stroke-width:10;stroke-linecap:butt;stroke-linejoin:miter;stroke-miterlimit:4;stroke-opacity:0.62433863;stroke-dasharray:none"
       d="M 24.662898,44.045802 C 177.1461,-23.618616 285.31386,50.716942 285.31386,50.716942"
       id="path3769"
       inkscape:connector-curvature="0"
       sodipodi:nodetypes="cc" />
  </g>
  <ellipse
     transform="matrix(0.97195154,0,0,0.97833478,-11.764528,6.3852675)"
     ry="36.972466"
     rx="37.925484"
     cy="42.221519"
     cx="55.751667"
     id="ellipse3771"
     style="fill:#c8c8c8;fill-opacity:1;stroke:#000000;stroke-width:10.26399994000000000;stroke-miterlimit:4;stroke-opacity:0.62433863;stroke-dasharray:none"
     d="m 93.677151,42.221519 c 0,20.419329 -16.979818,36.972466 -37.925484,36.972466 -20.945666,0 -37.925484,-16.553137 -37.925484,-36.972466 0,-20.419328 16.979818,-36.972465 37.925484,-36.972465 20.945666,0 37.925484,16.553137 37.925484,36.972465 z"
     sodipodi:cx="55.751667"
     sodipodi:cy="42.221519"
     sodipodi:rx="37.925484"
     sodipodi:ry="36.972466" />
  <path
     style="fill:#bd0000;fill-opacity:1;stroke:none"
     d="m 23.928557,43.901755 83.181953,-24.394229 56.04774,-0.90349 63.60973,15.35933 32.4721,15.359329 -2.22412,54.661135 -29.35834,73.63444 -53.37879,65.50302 -34.25139,13.1006 L 84.869348,222.34102 55.066187,180.78048 30.156083,128.37806 21.70444,84.107058 z"
     id="path3772"
     inkscape:connector-curvature="0"
     sodipodi:nodetypes="cccccccccccccc" />
  <g
     id="g3858"
     transform="matrix(0.93350261,0,0,0.94802839,-2.7292284,2.4097023)"
     style="stroke:#ffffff;stroke-opacity:1">
    <path
       sodipodi:nodetypes="cc"
       inkscape:connector-curvature="0"
       id="path4285"
       d="M 283.88433,46.904862 C 289.60245,180.32765 194.30045,255.61623 152.36757,268.95851"
       style="fill:none;stroke:#ffffff;stroke-width:10;stroke-linecap:butt;stroke-linejoin:miter;stroke-miterlimit:4;stroke-opacity:1;stroke-dasharray:none" />
    <path
       style="fill:none;stroke:#ffffff;stroke-width:10;stroke-linecap:butt;stroke-linejoin:miter;stroke-miterlimit:4;stroke-opacity:1;stroke-dasharray:none"
       d="M 24.580493,46.904862 C 18.862373,180.32765 114.16437,255.61623 156.09725,268.95851"
       id="path4346"
       inkscape:connector-curvature="0"
       sodipodi:nodetypes="cc" />
    <path
       sodipodi:nodetypes="cc"
       inkscape:connector-curvature="0"
       id="path4348"
       d="M 24.662898,44.045802 C 177.1461,-23.618616 285.31386,50.716942 285.31386,50.716942"
       style="fill:none;stroke:#ffffff;stroke-width:10;stroke-linecap:butt;stroke-linejoin:miter;stroke-miterlimit:4;stroke-opacity:1;stroke-dasharray:none" />
  </g>
  <ellipse
     sodipodi:ry="36.972466"
     sodipodi:rx="37.925484"
     sodipodi:cy="42.221519"
     sodipodi:cx="55.751667"
     d="m 93.677151,42.221519 c 0,20.419329 -16.979818,36.972466 -37.925484,36.972466 -20.945666,0 -37.925484,-16.553137 -37.925484,-36.972466 0,-20.419328 16.979818,-36.972465 37.925484,-36.972465 20.945666,0 37.925484,16.553137 37.925484,36.972465 z"
     style="fill:#c8c8c8;fill-opacity:1;stroke:#ffffff;stroke-width:10.26399994000000000;stroke-miterlimit:4;stroke-opacity:1;stroke-dasharray:none"
     id="path4283"
     cx="55.751667"
     cy="42.221519"
     rx="37.925484"
     ry="36.972466"
     transform="matrix(0.93350261,0,0,0.94802839,-5.8746035,9.7472335)" />
  <path
     style="fill:none;stroke:#ffffff;stroke-width:9.40737438000000030;stroke-linecap:butt;stroke-linejoin:miter;stroke-miterlimit:4;stroke-opacity:1;stroke-dasharray:none"
     d="m 37.71808,148.70658 c 38.254805,0.90349 92.52325,23.49074 92.52325,23.49074 l 20.46187,13.55235 18.68258,18.97329 11.5654,25.29772"
     id="path4350"
     inkscape:connector-curvature="0"
     sodipodi:nodetypes="ccccc" />
  <path
     style="fill:#ffffff;fill-opacity:1;stroke:none"
     d="m 75.149897,86.762043 c -4.622876,14.720677 0.350108,31.377487 13.818794,41.531747 13.357019,10.07007 31.132709,10.77415 44.824629,3.13802 l 57.00829,42.97944 0.11536,-0.14179 c 4.33899,3.27124 11.73899,1.15202 16.54855,-4.75825 4.80958,-5.91025 5.21313,-13.38047 0.87416,-16.65168 -0.27121,-0.20447 -0.56868,-0.33528 -0.86258,-0.4978 l -55.97716,-42.20197 c 4.8903,-14.843105 0.0439,-31.76678 -13.57086,-42.031134 C 124.44399,57.96199 106.39701,57.381148 92.649446,65.257654 l 31.965894,24.099588 -0.23077,0.283576 c 4.23334,4.105893 4.21489,11.371622 -0.22927,16.832842 -4.44415,5.4612 -11.76862,7.21884 -16.92418,4.24626 l -0.11537,0.14172 -31.965895,-24.09959 z"
     id="path3776"
     inkscape:connector-curvature="0" />
  <path
     style="fill:#000000;fill-opacity:1;stroke:#000000;stroke-width:0.94073749px;stroke-linecap:butt;stroke-linejoin:miter;stroke-opacity:1"
     d="m 33.9818,31.489417 0,37.921136 28.005079,-18.960568 z"
     id="path3793"
     inkscape:connector-curvature="0" />
</svg>
